<mxfile host="app.diagrams.net" modified="2020-09-17T11:40:41.587Z" agent="5.0 (Macintosh; Intel Mac OS X 10_15_6) AppleWebKit/537.36 (KHTML, like Gecko) Chrome/85.0.4183.102 Safari/537.36" etag="x4mbbTeoZPcGl-zhvYOy" version="13.7.2" type="github">
  <diagram id="kiFxhj90Ovs1g09nXB99" name="Page-1">
    <mxGraphModel dx="946" dy="538" grid="1" gridSize="10" guides="1" tooltips="1" connect="1" arrows="1" fold="1" page="1" pageScale="1" pageWidth="827" pageHeight="1169" math="0" shadow="0">
      <root>
        <mxCell id="0" />
        <mxCell id="1" parent="0" />
        <mxCell id="RpULbR8xR-r9eMQtJQJ8-15" value="" style="rounded=1;whiteSpace=wrap;html=1;" parent="1" vertex="1">
          <mxGeometry x="230" y="280" width="280" height="130" as="geometry" />
        </mxCell>
        <mxCell id="RpULbR8xR-r9eMQtJQJ8-30" value="enroll/update/sign/monitor" style="edgeStyle=orthogonalEdgeStyle;rounded=0;orthogonalLoop=1;jettySize=auto;html=1;startArrow=classic;startFill=1;" parent="1" source="RpULbR8xR-r9eMQtJQJ8-8" target="RpULbR8xR-r9eMQtJQJ8-15" edge="1">
          <mxGeometry relative="1" as="geometry" />
        </mxCell>
        <mxCell id="RpULbR8xR-r9eMQtJQJ8-8" value="" style="rounded=1;whiteSpace=wrap;html=1;arcSize=8;" parent="1" vertex="1">
          <mxGeometry x="475" y="78" width="170" height="130" as="geometry" />
        </mxCell>
        <mxCell id="RpULbR8xR-r9eMQtJQJ8-10" value="update req" style="edgeStyle=orthogonalEdgeStyle;rounded=0;orthogonalLoop=1;jettySize=auto;html=1;entryX=0;entryY=0.5;entryDx=0;entryDy=0;startArrow=classic;startFill=1;" parent="1" source="RpULbR8xR-r9eMQtJQJ8-4" target="RpULbR8xR-r9eMQtJQJ8-8" edge="1">
          <mxGeometry relative="1" as="geometry" />
        </mxCell>
        <mxCell id="RpULbR8xR-r9eMQtJQJ8-4" value="" style="shape=image;imageAspect=0;aspect=fixed;verticalLabelPosition=bottom;verticalAlign=top;image=https://pngimage.net/wp-content/uploads/2018/06/servicenow-logo-png-7.png;" parent="1" vertex="1">
          <mxGeometry x="230" y="90" width="129.2" height="80" as="geometry" />
        </mxCell>
        <mxCell id="RpULbR8xR-r9eMQtJQJ8-6" value="Req dWeb/F5" style="edgeStyle=orthogonalEdgeStyle;rounded=0;orthogonalLoop=1;jettySize=auto;html=1;entryX=0;entryY=0.5;entryDx=0;entryDy=0;" parent="1" source="RpULbR8xR-r9eMQtJQJ8-5" target="RpULbR8xR-r9eMQtJQJ8-4" edge="1">
          <mxGeometry relative="1" as="geometry" />
        </mxCell>
        <mxCell id="RpULbR8xR-r9eMQtJQJ8-5" value="" style="shape=image;html=1;verticalAlign=top;verticalLabelPosition=bottom;labelBackgroundColor=#ffffff;imageAspect=0;aspect=fixed;image=https://cdn0.iconfinder.com/data/icons/hamburg/32/hire-me.png" parent="1" vertex="1">
          <mxGeometry x="40" y="99.5" width="61" height="61" as="geometry" />
        </mxCell>
        <mxCell id="RpULbR8xR-r9eMQtJQJ8-7" value="" style="shape=image;imageAspect=0;aspect=fixed;verticalLabelPosition=bottom;verticalAlign=top;image=https://www.thecuriousdev.org/wp-content/uploads/2017/12/spring-boot-logo.png;" parent="1" vertex="1">
          <mxGeometry x="484" y="110.25" width="113.81" height="59.75" as="geometry" />
        </mxCell>
        <mxCell id="RpULbR8xR-r9eMQtJQJ8-17" value="&lt;h1&gt;Keyfactor&lt;/h1&gt;" style="text;html=1;strokeColor=none;fillColor=none;spacing=5;spacingTop=-20;whiteSpace=wrap;overflow=hidden;rounded=0;" parent="1" vertex="1">
          <mxGeometry x="230" y="280" width="170" height="40" as="geometry" />
        </mxCell>
        <mxCell id="RpULbR8xR-r9eMQtJQJ8-40" style="edgeStyle=orthogonalEdgeStyle;rounded=0;orthogonalLoop=1;jettySize=auto;html=1;startArrow=classic;startFill=1;" parent="1" source="RpULbR8xR-r9eMQtJQJ8-18" target="RpULbR8xR-r9eMQtJQJ8-36" edge="1">
          <mxGeometry relative="1" as="geometry">
            <Array as="points">
              <mxPoint x="465" y="320" />
            </Array>
          </mxGeometry>
        </mxCell>
        <mxCell id="RpULbR8xR-r9eMQtJQJ8-18" value="" style="aspect=fixed;html=1;points=[];align=center;image;fontSize=12;image=img/lib/mscae/Certificate.svg;" parent="1" vertex="1">
          <mxGeometry x="400" y="290" width="50" height="41.99" as="geometry" />
        </mxCell>
        <mxCell id="RpULbR8xR-r9eMQtJQJ8-23" value="Discovery/Inventory" style="edgeStyle=orthogonalEdgeStyle;rounded=0;orthogonalLoop=1;jettySize=auto;html=1;entryX=0.5;entryY=0;entryDx=0;entryDy=0;" parent="1" source="RpULbR8xR-r9eMQtJQJ8-20" target="RpULbR8xR-r9eMQtJQJ8-31" edge="1">
          <mxGeometry x="0.378" y="-36" relative="1" as="geometry">
            <mxPoint x="300" y="460" as="targetPoint" />
            <Array as="points">
              <mxPoint x="355" y="470" />
              <mxPoint x="355" y="470" />
            </Array>
            <mxPoint x="1" y="-10" as="offset" />
          </mxGeometry>
        </mxCell>
        <mxCell id="RpULbR8xR-r9eMQtJQJ8-34" value="Discovery/Inventory" style="edgeStyle=orthogonalEdgeStyle;rounded=0;orthogonalLoop=1;jettySize=auto;html=1;startArrow=classic;startFill=1;" parent="1" source="RpULbR8xR-r9eMQtJQJ8-20" target="RpULbR8xR-r9eMQtJQJ8-32" edge="1">
          <mxGeometry x="0.5471" y="36" relative="1" as="geometry">
            <Array as="points">
              <mxPoint x="355" y="440" />
              <mxPoint x="465" y="440" />
            </Array>
            <mxPoint x="-1" y="-10" as="offset" />
          </mxGeometry>
        </mxCell>
        <mxCell id="jqjpjDshXrfnDA7HH064-4" style="edgeStyle=orthogonalEdgeStyle;rounded=0;orthogonalLoop=1;jettySize=auto;html=1;" edge="1" parent="1" source="RpULbR8xR-r9eMQtJQJ8-20" target="jqjpjDshXrfnDA7HH064-1">
          <mxGeometry relative="1" as="geometry">
            <Array as="points">
              <mxPoint x="355" y="440" />
              <mxPoint x="565" y="440" />
            </Array>
          </mxGeometry>
        </mxCell>
        <mxCell id="jqjpjDshXrfnDA7HH064-5" style="edgeStyle=orthogonalEdgeStyle;rounded=0;orthogonalLoop=1;jettySize=auto;html=1;entryX=0.5;entryY=0;entryDx=0;entryDy=0;" edge="1" parent="1" source="RpULbR8xR-r9eMQtJQJ8-20" target="jqjpjDshXrfnDA7HH064-2">
          <mxGeometry relative="1" as="geometry">
            <Array as="points">
              <mxPoint x="355" y="440" />
              <mxPoint x="255" y="440" />
            </Array>
          </mxGeometry>
        </mxCell>
        <mxCell id="RpULbR8xR-r9eMQtJQJ8-20" value="Orchestrator" style="aspect=fixed;html=1;points=[];align=center;image;fontSize=12;image=img/lib/mscae/SchedulerJobCollection.svg;" parent="1" vertex="1">
          <mxGeometry x="330" y="336.22" width="50" height="43" as="geometry" />
        </mxCell>
        <mxCell id="RpULbR8xR-r9eMQtJQJ8-29" value="Openshift service container" style="text;html=1;strokeColor=none;fillColor=none;align=center;verticalAlign=middle;whiteSpace=wrap;rounded=0;" parent="1" vertex="1">
          <mxGeometry x="470" y="79.5" width="180" height="20" as="geometry" />
        </mxCell>
        <mxCell id="RpULbR8xR-r9eMQtJQJ8-31" value="dWeb" style="rounded=1;whiteSpace=wrap;html=1;" parent="1" vertex="1">
          <mxGeometry x="310" y="490" width="90" height="60" as="geometry" />
        </mxCell>
        <mxCell id="RpULbR8xR-r9eMQtJQJ8-32" value="F5" style="rounded=1;whiteSpace=wrap;html=1;" parent="1" vertex="1">
          <mxGeometry x="420" y="490" width="90" height="60" as="geometry" />
        </mxCell>
        <mxCell id="RpULbR8xR-r9eMQtJQJ8-36" value="" style="aspect=fixed;html=1;points=[];align=center;image;fontSize=12;image=img/lib/mscae/SQL_Database_generic.svg;" parent="1" vertex="1">
          <mxGeometry x="450.00000000000006" y="339.22" width="30.4" height="40" as="geometry" />
        </mxCell>
        <mxCell id="jqjpjDshXrfnDA7HH064-1" value="AutobhanFx" style="rounded=1;whiteSpace=wrap;html=1;" vertex="1" parent="1">
          <mxGeometry x="520" y="490" width="90" height="60" as="geometry" />
        </mxCell>
        <mxCell id="jqjpjDshXrfnDA7HH064-2" value="ATM" style="rounded=1;whiteSpace=wrap;html=1;" vertex="1" parent="1">
          <mxGeometry x="210" y="490" width="90" height="60" as="geometry" />
        </mxCell>
        <mxCell id="jqjpjDshXrfnDA7HH064-6" value="" style="html=1;dashed=0;whitespace=wrap;fillColor=#2875E2;strokeColor=#ffffff;points=[[0.005,0.63,0],[0.1,0.2,0],[0.9,0.2,0],[0.5,0,0],[0.995,0.63,0],[0.72,0.99,0],[0.5,1,0],[0.28,0.99,0]];shape=mxgraph.kubernetes.icon;prIcon=api" vertex="1" parent="1">
          <mxGeometry x="605.25" y="152" width="30" height="28" as="geometry" />
        </mxCell>
        <mxCell id="jqjpjDshXrfnDA7HH064-9" style="edgeStyle=orthogonalEdgeStyle;rounded=0;orthogonalLoop=1;jettySize=auto;html=1;" edge="1" parent="1" source="jqjpjDshXrfnDA7HH064-7" target="RpULbR8xR-r9eMQtJQJ8-18">
          <mxGeometry relative="1" as="geometry">
            <Array as="points">
              <mxPoint x="369" y="311" />
            </Array>
          </mxGeometry>
        </mxCell>
        <mxCell id="jqjpjDshXrfnDA7HH064-7" value="" style="html=1;dashed=0;whitespace=wrap;fillColor=#2875E2;strokeColor=#ffffff;points=[[0.005,0.63,0],[0.1,0.2,0],[0.9,0.2,0],[0.5,0,0],[0.995,0.63,0],[0.72,0.99,0],[0.5,1,0],[0.28,0.99,0]];shape=mxgraph.kubernetes.icon;prIcon=api" vertex="1" parent="1">
          <mxGeometry x="357.80999999999995" y="280" width="22.19" height="26.28" as="geometry" />
        </mxCell>
        <mxCell id="jqjpjDshXrfnDA7HH064-10" value="RestAPI" style="text;html=1;strokeColor=none;fillColor=none;align=center;verticalAlign=middle;whiteSpace=wrap;rounded=0;" vertex="1" parent="1">
          <mxGeometry x="575" y="180" width="40" height="20" as="geometry" />
        </mxCell>
        <mxCell id="jqjpjDshXrfnDA7HH064-11" style="edgeStyle=orthogonalEdgeStyle;rounded=0;orthogonalLoop=1;jettySize=auto;html=1;exitX=0.5;exitY=1;exitDx=0;exitDy=0;" edge="1" parent="1" source="jqjpjDshXrfnDA7HH064-10" target="jqjpjDshXrfnDA7HH064-10">
          <mxGeometry relative="1" as="geometry" />
        </mxCell>
        <mxCell id="jqjpjDshXrfnDA7HH064-13" value="" style="shape=image;html=1;verticalAlign=top;verticalLabelPosition=bottom;labelBackgroundColor=#ffffff;imageAspect=0;aspect=fixed;image=https://cdn4.iconfinder.com/data/icons/logos-and-brands/512/181_Java_logo_logos-128.png" vertex="1" parent="1">
          <mxGeometry x="575" y="139.75" width="30.25" height="30.25" as="geometry" />
        </mxCell>
      </root>
    </mxGraphModel>
  </diagram>
</mxfile>
